<svg xmlns="http://www.w3.org/2000/svg" viewBox="0 -6 392.8 136" width="393" height="130" role="img" aria-label="OCO Trailer Rentals"><title>OCO Trailer Rentals</title><g fill="#16272F" transform="translate(63.6 74)"><path transform="translate(0.00 0) scale(0.046875 -0.046875)" d="M870 1241Q694 1241 597.0 1111.0Q500 981 500 745Q500 510 597.0 380.0Q694 250 870 250Q1047 250 1144.0 380.0Q1241 510 1241 745Q1241 981 1144.0 1111.0Q1047 1241 870 1241ZM870 1520Q1230 1520 1434.0 1314.0Q1638 1108 1638 745Q1638 383 1434.0 177.0Q1230 -29 870 -29Q511 -29 306.5 177.0Q102 383 102 745Q102 1108 306.5 1314.0Q511 1520 870 1520Z"/><path transform="translate(97.61 0) scale(0.046875 -0.046875)" d="M1372 82Q1266 27 1151.0 -1.0Q1036 -29 911 -29Q538 -29 320.0 179.5Q102 388 102 745Q102 1103 320.0 1311.5Q538 1520 911 1520Q1036 1520 1151.0 1492.0Q1266 1464 1372 1409V1100Q1265 1173 1161.0 1207.0Q1057 1241 942 1241Q736 1241 618.0 1109.0Q500 977 500 745Q500 514 618.0 382.0Q736 250 942 250Q1057 250 1161.0 284.0Q1265 318 1372 391Z"/><path transform="translate(184.06 0) scale(0.046875 -0.046875)" d="M870 1241Q694 1241 597.0 1111.0Q500 981 500 745Q500 510 597.0 380.0Q694 250 870 250Q1047 250 1144.0 380.0Q1241 510 1241 745Q1241 981 1144.0 1111.0Q1047 1241 870 1241ZM870 1520Q1230 1520 1434.0 1314.0Q1638 1108 1638 745Q1638 383 1434.0 177.0Q1230 -29 870 -29Q511 -29 306.5 177.0Q102 383 102 745Q102 1108 306.5 1314.0Q511 1520 870 1520Z"/></g><g fill="#16272F" transform="translate(0.0 116)"><path transform="translate(0.00 0) scale(0.013184 -0.013184)" d="M10 1493H1386V1202H891V0H506V1202H10Z"/><path transform="translate(26.92 0) scale(0.013184 -0.013184)" d="M735 831Q856 831 908.5 876.0Q961 921 961 1024Q961 1126 908.5 1170.0Q856 1214 735 1214H573V831ZM573 565V0H188V1493H776Q1071 1493 1208.5 1394.0Q1346 1295 1346 1081Q1346 933 1274.5 838.0Q1203 743 1059 698Q1138 680 1200.5 616.5Q1263 553 1327 424L1536 0H1126L944 371Q889 483 832.5 524.0Q776 565 682 565Z"/><path transform="translate(56.21 0) scale(0.013184 -0.013184)" d="M1094 272H492L397 0H10L563 1493H1022L1575 0H1188ZM588 549H997L793 1143Z"/><path transform="translate(85.60 0) scale(0.013184 -0.013184)" d="M188 1493H573V0H188Z"/><path transform="translate(104.15 0) scale(0.013184 -0.013184)" d="M188 1493H573V291H1249V0H188Z"/><path transform="translate(129.85 0) scale(0.013184 -0.013184)" d="M188 1493H1227V1202H573V924H1188V633H573V291H1249V0H188Z"/><path transform="translate(156.80 0) scale(0.013184 -0.013184)" d="M735 831Q856 831 908.5 876.0Q961 921 961 1024Q961 1126 908.5 1170.0Q856 1214 735 1214H573V831ZM573 565V0H188V1493H776Q1071 1493 1208.5 1394.0Q1346 1295 1346 1081Q1346 933 1274.5 838.0Q1203 743 1059 698Q1138 680 1200.5 616.5Q1263 553 1327 424L1536 0H1126L944 371Q889 483 832.5 524.0Q776 565 682 565Z"/><path transform="translate(203.99 0) scale(0.013184 -0.013184)" d="M735 831Q856 831 908.5 876.0Q961 921 961 1024Q961 1126 908.5 1170.0Q856 1214 735 1214H573V831ZM573 565V0H188V1493H776Q1071 1493 1208.5 1394.0Q1346 1295 1346 1081Q1346 933 1274.5 838.0Q1203 743 1059 698Q1138 680 1200.5 616.5Q1263 553 1327 424L1536 0H1126L944 371Q889 483 832.5 524.0Q776 565 682 565Z"/><path transform="translate(233.28 0) scale(0.013184 -0.013184)" d="M188 1493H1227V1202H573V924H1188V633H573V291H1249V0H188Z"/><path transform="translate(260.22 0) scale(0.013184 -0.013184)" d="M188 1493H618L1161 469V1493H1526V0H1096L553 1024V0H188Z"/><path transform="translate(291.32 0) scale(0.013184 -0.013184)" d="M10 1493H1386V1202H891V0H506V1202H10Z"/><path transform="translate(318.24 0) scale(0.013184 -0.013184)" d="M1094 272H492L397 0H10L563 1493H1022L1575 0H1188ZM588 549H997L793 1143Z"/><path transform="translate(347.63 0) scale(0.013184 -0.013184)" d="M188 1493H573V291H1249V0H188Z"/><path transform="translate(373.34 0) scale(0.013184 -0.013184)" d="M1227 1446V1130Q1104 1185 987.0 1213.0Q870 1241 766 1241Q628 1241 562.0 1203.0Q496 1165 496 1085Q496 1025 540.5 991.5Q585 958 702 934L866 901Q1115 851 1220.0 749.0Q1325 647 1325 459Q1325 212 1178.5 91.5Q1032 -29 731 -29Q589 -29 446.0 -2.0Q303 25 160 78V403Q303 327 436.5 288.5Q570 250 694 250Q820 250 887.0 292.0Q954 334 954 412Q954 482 908.5 520.0Q863 558 727 588L578 621Q354 669 250.5 774.0Q147 879 147 1057Q147 1280 291.0 1400.0Q435 1520 705 1520Q828 1520 958.0 1501.5Q1088 1483 1227 1446Z"/></g></svg>
